# xmcd
#
# Track frame offsets: 
#        300
#        14736
#        44853
#        76260
#        99158
#        139225
#        157366
#        176155
#        195389
#        213272
#
# Disc length: 2984 seconds
#
# Revision: 0
# Processed by: cddbd v1.5.2PL0 Copyright (c) Steve Scherf et al.
# Submitted via: ExactAudioCopy v1.0b1
#
DISCID=900ba40a
DTITLE=Bobby "Blue" Bland - Memphis Monday Morning
DYEAR=1998
DGENRE=Soul Blues
TTITLE0=I'm Bobby "B"
TTITLE1=I Don't Want No Kickin' In My Stall
TTITLE2=There's A Rat Loose In My House
TTITLE3=The Truth Will Set You Free
TTITLE4=Memphis Monday Morning
TTITLE5=I'm Glad
TTITLE6=My Baby Is The Only One
TTITLE7=I Hate Missin' You
TTITLE8=You Left Me With The Blues
TTITLE9=Lookin' For Some Tush
EXTD=
EXTT0=
EXTT1=
EXTT2=
EXTT3=
EXTT4=
EXTT5=
EXTT6=
EXTT7=
EXTT8=
EXTT9=
PLAYORDER=
